<?xml version="1.0" encoding="UTF-8"?>
<svg xmlns="http://www.w3.org/2000/svg" xmlns:xlink="http://www.w3.org/1999/xlink" version="1.1" id="Capa_1" x="0px" y="0px" viewBox="0 0 512 512" style="enable-background:new 0 0 512 512;" xml:space="preserve" width="512" height="512">
<g>
	<g>
		<g>
			<g>
				<path style="fill:#DD7F66;" d="M365.5,504.5h-318c-22.091,0-40-17.909-40-40v-417c0-22.091,17.909-40,40-40h318&#10;&#9;&#9;&#9;&#9;&#9;c5.523,0,10,4.477,10,10v412.833l-10,24l10,24V494.5C375.5,500.023,371.023,504.5,365.5,504.5z"/>
				<path style="fill:#D6694B;" d="M365.5,7.5h-40c5.523,0,10,4.477,10,10v477c0,5.523-4.477,10-10,10h40c5.523,0,10-4.477,10-10&#10;&#9;&#9;&#9;&#9;&#9;v-16.167L365.5,449l10-18.667V17.5C375.5,11.977,371.023,7.5,365.5,7.5z"/>
				<g>
					<g>
						<path style="fill:#FAF7F7;" d="M180.961,40.175c-1.351,0.276-2.281,1.487-2.254,2.866c0.119,6.115-4.132,11.635-10.339,12.904&#10;&#9;&#9;&#9;&#9;&#9;&#9;&#9;c-6.207,1.269-12.284-2.14-14.574-7.811c-0.516-1.279-1.847-2.028-3.198-1.751l-14.586,2.982&#10;&#9;&#9;&#9;&#9;&#9;&#9;&#9;c-1.351,0.276-2.281,1.487-2.254,2.866c0.119,6.115-4.132,11.635-10.339,12.904c-6.207,1.269-12.284-2.14-14.574-7.811&#10;&#9;&#9;&#9;&#9;&#9;&#9;&#9;c-0.516-1.279-1.847-2.028-3.198-1.752l-14.586,2.982c-1.351,0.276-2.281,1.487-2.254,2.866&#10;&#9;&#9;&#9;&#9;&#9;&#9;&#9;c0.119,6.115-4.132,11.635-10.339,12.904c-6.207,1.269-12.284-2.14-14.574-7.811c-0.516-1.279-1.847-2.028-3.198-1.752&#10;&#9;&#9;&#9;&#9;&#9;&#9;&#9;l-14.205,2.904c-1.53,0.313-2.517,1.807-2.205,3.338l2.904,14.206c0.276,1.351,1.487,2.281,2.866,2.254&#10;&#9;&#9;&#9;&#9;&#9;&#9;&#9;c6.115-0.119,11.635,4.132,12.904,10.339c1.269,6.207-2.14,12.284-7.811,14.574c-1.279,0.516-2.028,1.847-1.752,3.198&#10;&#9;&#9;&#9;&#9;&#9;&#9;&#9;l2.982,14.586c0.276,1.351,1.487,2.281,2.866,2.254c6.115-0.119,11.635,4.132,12.904,10.339&#10;&#9;&#9;&#9;&#9;&#9;&#9;&#9;c1.269,6.207-2.14,12.284-7.811,14.574c-1.279,0.516-2.028,1.847-1.752,3.198l2.982,14.586&#10;&#9;&#9;&#9;&#9;&#9;&#9;&#9;c0.276,1.351,1.487,2.281,2.866,2.254c6.115-0.119,11.635,4.132,12.904,10.339s-2.14,12.284-7.811,14.574&#10;&#9;&#9;&#9;&#9;&#9;&#9;&#9;c-1.279,0.516-2.028,1.847-1.752,3.198l2.904,14.206c0.313,1.53,1.807,2.517,3.338,2.205l14.205-2.904&#10;&#9;&#9;&#9;&#9;&#9;&#9;&#9;c1.351-0.276,2.281-1.487,2.254-2.866c-0.119-6.115,4.132-11.635,10.339-12.904c6.207-1.269,12.284,2.14,14.574,7.811&#10;&#9;&#9;&#9;&#9;&#9;&#9;&#9;c0.516,1.279,1.847,2.028,3.198,1.751l14.586-2.982c1.351-0.276,2.281-1.487,2.254-2.866&#10;&#9;&#9;&#9;&#9;&#9;&#9;&#9;c-0.119-6.115,4.132-11.635,10.339-12.904s12.284,2.14,14.574,7.811c0.516,1.279,1.847,2.028,3.198,1.751l14.586-2.982&#10;&#9;&#9;&#9;&#9;&#9;&#9;&#9;c1.351-0.276,2.281-1.487,2.254-2.866c-0.119-6.115,4.132-11.635,10.339-12.904c6.207-1.269,12.284,2.14,14.574,7.811&#10;&#9;&#9;&#9;&#9;&#9;&#9;&#9;c0.516,1.279,1.847,2.028,3.198,1.751l14.205-2.904c1.53-0.313,2.517-1.807,2.205-3.338l-2.904-14.206&#10;&#9;&#9;&#9;&#9;&#9;&#9;&#9;c-0.276-1.351-1.487-2.281-2.866-2.254c-6.115,0.119-11.635-4.132-12.904-10.339c-1.269-6.207,2.14-12.284,7.811-14.574&#10;&#9;&#9;&#9;&#9;&#9;&#9;&#9;c1.279-0.516,2.028-1.847,1.752-3.198l-2.982-14.586c-0.276-1.351-1.487-2.281-2.866-2.254&#10;&#9;&#9;&#9;&#9;&#9;&#9;&#9;c-6.115,0.119-11.635-4.132-12.904-10.339c-1.269-6.207,2.14-12.284,7.811-14.574c1.279-0.516,2.028-1.847,1.751-3.198&#10;&#9;&#9;&#9;&#9;&#9;&#9;&#9;l-2.982-14.586c-0.276-1.351-1.487-2.281-2.866-2.254c-6.115,0.119-11.635-4.132-12.904-10.339&#10;&#9;&#9;&#9;&#9;&#9;&#9;&#9;c-1.269-6.207,2.14-12.284,7.811-14.574c1.279-0.516,2.028-1.847,1.752-3.198l-2.904-14.206&#10;&#9;&#9;&#9;&#9;&#9;&#9;&#9;c-0.313-1.53-1.807-2.517-3.338-2.205L180.961,40.175z"/>
					</g>
					
						<rect x="94.934" y="87.487" transform="matrix(0.9797 -0.2003 0.2003 0.9797 -23.1848 29.9824)" style="fill:#CB97E7;" width="83.313" height="84.183"/>
				</g>
				<path style="fill:#FAF7F7;" d="M375.5,478.333H48.671c-8.194,0-14.837-6.643-14.837-14.837v-18.326&#10;&#9;&#9;&#9;&#9;&#9;c0-8.194,6.643-14.837,14.837-14.837H375.5V478.333z"/>
				<rect x="335.5" y="430.333" style="fill:#DEDBEE;" width="40" height="48"/>
				<path style="fill:#AB695D;" d="M340.5,270.333h36.333c5.523,0,10-4.477,10-10V197c0-5.523-4.477-10-10-10H340.5&#10;&#9;&#9;&#9;&#9;&#9;c-23.012,0-41.667,18.655-41.667,41.667v0C298.833,251.679,317.488,270.333,340.5,270.333z"/>
				<path style="fill:#FEE45A;" d="M293.498,382.349l-119.512-69c-4.783-2.761-6.422-8.877-3.66-13.66l31.5-54.56&#10;&#9;&#9;&#9;&#9;&#9;c2.761-4.783,8.877-6.422,13.66-3.66l119.512,69c4.783,2.761,6.422,8.877,3.66,13.66l-31.5,54.56&#10;&#9;&#9;&#9;&#9;&#9;C304.396,383.472,298.281,385.11,293.498,382.349z"/>
			</g>
			<g>
				<path style="fill:#FAF7F7;" d="M113.559,398.829c-37.128,0-67.333-30.205-67.333-67.333s30.205-67.334,67.333-67.334&#10;&#9;&#9;&#9;&#9;&#9;s67.334,30.206,67.334,67.334S150.687,398.829,113.559,398.829z"/>
				<circle style="fill:#9AD4FE;" cx="113.56" cy="331.495" r="42.333"/>
			</g>
			<circle style="fill:#FAF7F7;" cx="342.749" cy="228.667" r="16.835"/>
		</g>
		<g>
			<path style="fill:#685E68;" d="M449.614,33.5h-0.07c-6.842,0-12.389,5.547-12.389,12.389v59.923h24.849V45.889&#10;&#9;&#9;&#9;&#9;C462.004,39.047,456.457,33.5,449.614,33.5z"/>
			<line style="fill:none;" x1="449.579" y1="450.679" x2="449.579" y2="478.5"/>
			<path style="fill:#FEE45A;" d="M475.485,89.818v125.021l-25.906,31.495l-25.906-31.495V89.818&#10;&#9;&#9;&#9;&#9;c0-5.691,4.639-10.304,10.362-10.304h31.087C470.846,79.514,475.485,84.127,475.485,89.818z"/>
			<path style="fill:#685E68;" d="M423.674,214.838h51.812c0,118.215-11.883,208.041-15.933,235.219&#10;&#9;&#9;&#9;&#9;c-0.73,4.9-4.936,8.521-9.89,8.521h-0.124c-4.971,0-9.185-3.648-9.897-8.568C435.626,422.282,423.674,330.069,423.674,214.838z"/>
		</g>
	</g>
	<g>
		<g>
			<g>
				<path style="fill:none;stroke:#000000;stroke-width:15;stroke-linecap:round;stroke-linejoin:round;stroke-miterlimit:10;" d="&#10;&#9;&#9;&#9;&#9;&#9;M7.5,97V47.5c0-22.091,17.909-40,40-40h318c5.523,0,10,4.477,10,10V187"/>
				<path style="fill:none;stroke:#000000;stroke-width:15;stroke-linecap:round;stroke-linejoin:round;stroke-miterlimit:10;" d="&#10;&#9;&#9;&#9;&#9;&#9;M375.5,270.333V494.5c0,5.523-4.477,10-10,10h-318c-22.091,0-40-17.909-40-40V128.018"/>
				<g>
					<g>
						
							<path style="fill:none;stroke:#000000;stroke-width:15;stroke-linecap:round;stroke-linejoin:round;stroke-miterlimit:10;" d="&#10;&#9;&#9;&#9;&#9;&#9;&#9;&#9;M180.961,40.175c-1.351,0.276-2.281,1.487-2.254,2.866c0.119,6.115-4.132,11.635-10.339,12.904&#10;&#9;&#9;&#9;&#9;&#9;&#9;&#9;c-6.207,1.269-12.284-2.14-14.574-7.811c-0.516-1.279-1.847-2.028-3.198-1.751l-14.586,2.982&#10;&#9;&#9;&#9;&#9;&#9;&#9;&#9;c-1.351,0.276-2.281,1.487-2.254,2.866c0.119,6.115-4.132,11.635-10.339,12.904c-6.207,1.269-12.284-2.14-14.574-7.811&#10;&#9;&#9;&#9;&#9;&#9;&#9;&#9;c-0.516-1.279-1.847-2.028-3.198-1.752l-14.586,2.982c-1.351,0.276-2.281,1.487-2.254,2.866&#10;&#9;&#9;&#9;&#9;&#9;&#9;&#9;c0.119,6.115-4.132,11.635-10.339,12.904c-6.207,1.269-12.284-2.14-14.574-7.811c-0.516-1.279-1.847-2.028-3.198-1.752&#10;&#9;&#9;&#9;&#9;&#9;&#9;&#9;l-14.205,2.904c-1.53,0.313-2.517,1.807-2.205,3.338l2.904,14.206c0.276,1.351,1.487,2.281,2.866,2.254&#10;&#9;&#9;&#9;&#9;&#9;&#9;&#9;c6.115-0.119,11.635,4.132,12.904,10.339c1.269,6.207-2.14,12.284-7.811,14.574c-1.279,0.516-2.028,1.847-1.752,3.198&#10;&#9;&#9;&#9;&#9;&#9;&#9;&#9;l2.982,14.586c0.276,1.351,1.487,2.281,2.866,2.254c6.115-0.119,11.635,4.132,12.904,10.339&#10;&#9;&#9;&#9;&#9;&#9;&#9;&#9;c1.269,6.207-2.14,12.284-7.811,14.574c-1.279,0.516-2.028,1.847-1.752,3.198l2.982,14.586&#10;&#9;&#9;&#9;&#9;&#9;&#9;&#9;c0.276,1.351,1.487,2.281,2.866,2.254c6.115-0.119,11.635,4.132,12.904,10.339s-2.14,12.284-7.811,14.574&#10;&#9;&#9;&#9;&#9;&#9;&#9;&#9;c-1.279,0.516-2.028,1.847-1.752,3.198l2.904,14.206c0.313,1.53,1.807,2.517,3.338,2.205l14.205-2.904&#10;&#9;&#9;&#9;&#9;&#9;&#9;&#9;c1.351-0.276,2.281-1.487,2.254-2.866c-0.119-6.115,4.132-11.635,10.339-12.904c6.207-1.269,12.284,2.14,14.574,7.811&#10;&#9;&#9;&#9;&#9;&#9;&#9;&#9;c0.516,1.279,1.847,2.028,3.198,1.751l14.586-2.982c1.351-0.276,2.281-1.487,2.254-2.866&#10;&#9;&#9;&#9;&#9;&#9;&#9;&#9;c-0.119-6.115,4.132-11.635,10.339-12.904s12.284,2.14,14.574,7.811c0.516,1.279,1.847,2.028,3.198,1.751l14.586-2.982&#10;&#9;&#9;&#9;&#9;&#9;&#9;&#9;c1.351-0.276,2.281-1.487,2.254-2.866c-0.119-6.115,4.132-11.635,10.339-12.904c6.207-1.269,12.284,2.14,14.574,7.811&#10;&#9;&#9;&#9;&#9;&#9;&#9;&#9;c0.516,1.279,1.847,2.028,3.198,1.751l14.205-2.904c1.53-0.313,2.517-1.807,2.205-3.338l-2.904-14.206&#10;&#9;&#9;&#9;&#9;&#9;&#9;&#9;c-0.276-1.351-1.487-2.281-2.866-2.254c-6.115,0.119-11.635-4.132-12.904-10.339c-1.269-6.207,2.14-12.284,7.811-14.574&#10;&#9;&#9;&#9;&#9;&#9;&#9;&#9;c1.279-0.516,2.028-1.847,1.752-3.198l-2.982-14.586c-0.276-1.351-1.487-2.281-2.866-2.254&#10;&#9;&#9;&#9;&#9;&#9;&#9;&#9;c-6.115,0.119-11.635-4.132-12.904-10.339c-1.269-6.207,2.14-12.284,7.811-14.574c1.279-0.516,2.028-1.847,1.751-3.198&#10;&#9;&#9;&#9;&#9;&#9;&#9;&#9;l-2.982-14.586c-0.276-1.351-1.487-2.281-2.866-2.254c-6.115,0.119-11.635-4.132-12.904-10.339&#10;&#9;&#9;&#9;&#9;&#9;&#9;&#9;c-1.269-6.207,2.14-12.284,7.811-14.574c1.279-0.516,2.028-1.847,1.752-3.198l-2.904-14.206&#10;&#9;&#9;&#9;&#9;&#9;&#9;&#9;c-0.313-1.53-1.807-2.517-3.338-2.205L180.961,40.175z"/>
					</g>
					
						<rect x="94.934" y="87.487" transform="matrix(0.9797 -0.2003 0.2003 0.9797 -23.1848 29.9824)" style="fill:none;stroke:#000000;stroke-width:15;stroke-linecap:round;stroke-linejoin:round;stroke-miterlimit:10;" width="83.313" height="84.183"/>
				</g>
				<path style="fill:none;stroke:#000000;stroke-width:15;stroke-linecap:round;stroke-linejoin:round;stroke-miterlimit:10;" d="&#10;&#9;&#9;&#9;&#9;&#9;M375.5,478.333H48.671c-8.194,0-14.837-6.643-14.837-14.837v-18.326c0-8.194,6.643-14.837,14.837-14.837H375.5"/>
				<path style="fill:none;stroke:#000000;stroke-width:15;stroke-linecap:round;stroke-linejoin:round;stroke-miterlimit:10;" d="&#10;&#9;&#9;&#9;&#9;&#9;M340.5,270.333h36.333c5.523,0,10-4.477,10-10V197c0-5.523-4.477-10-10-10H340.5c-23.012,0-41.667,18.655-41.667,41.667v0&#10;&#9;&#9;&#9;&#9;&#9;C298.833,251.679,317.488,270.333,340.5,270.333z"/>
				<path style="fill:none;stroke:#000000;stroke-width:15;stroke-linecap:round;stroke-linejoin:round;stroke-miterlimit:10;" d="&#10;&#9;&#9;&#9;&#9;&#9;M171.624,297.44l30.202-52.311c2.761-4.783,8.877-6.422,13.66-3.66l119.512,69c4.783,2.761,6.422,8.877,3.66,13.66l-31.5,54.56&#10;&#9;&#9;&#9;&#9;&#9;c-2.761,4.783-8.877,6.422-13.66,3.66l-114.324-66.005"/>
			</g>
			<g>
				<path style="fill:none;stroke:#000000;stroke-width:15;stroke-linecap:round;stroke-linejoin:round;stroke-miterlimit:10;" d="&#10;&#9;&#9;&#9;&#9;&#9;M113.559,398.829c-37.128,0-67.333-30.205-67.333-67.333s30.205-67.334,67.333-67.334s67.334,30.206,67.334,67.334&#10;&#9;&#9;&#9;&#9;&#9;S150.687,398.829,113.559,398.829z"/>
				
					<circle style="fill:none;stroke:#000000;stroke-width:15;stroke-linecap:round;stroke-linejoin:round;stroke-miterlimit:10;" cx="113.56" cy="331.495" r="42.333"/>
			</g>
			
				<line style="fill:none;stroke:#000000;stroke-width:15;stroke-linecap:round;stroke-linejoin:round;stroke-miterlimit:10;" x1="213.999" y1="288.53" x2="294.985" y2="335.287"/>
			<g>
				
					<line style="fill:none;stroke:#000000;stroke-width:15;stroke-linecap:round;stroke-linejoin:round;stroke-miterlimit:10;" x1="334.655" y1="75" x2="255.314" y2="75"/>
				
					<line style="fill:none;stroke:#000000;stroke-width:15;stroke-linecap:round;stroke-linejoin:round;stroke-miterlimit:10;" x1="334.655" y1="113.306" x2="284.833" y2="113.306"/>
			</g>
			
				<circle style="fill:none;stroke:#000000;stroke-width:15;stroke-linecap:round;stroke-linejoin:round;stroke-miterlimit:10;" cx="342.749" cy="228.667" r="16.835"/>
		</g>
		<g>
			
				<line style="fill:none;stroke:#000000;stroke-width:15;stroke-linecap:round;stroke-linejoin:round;stroke-miterlimit:10;" x1="449.662" y1="458.579" x2="449.579" y2="478.5"/>
			<path style="fill:none;stroke:#000000;stroke-width:15;stroke-linecap:round;stroke-linejoin:round;stroke-miterlimit:10;" d="&#10;&#9;&#9;&#9;&#9;M475.485,89.818v125.021h-51.812V89.818c0-5.691,4.639-10.304,10.362-10.304h31.087&#10;&#9;&#9;&#9;&#9;C470.846,79.514,475.485,84.127,475.485,89.818z"/>
			<path style="fill:none;stroke:#000000;stroke-width:15;stroke-linecap:round;stroke-linejoin:round;stroke-miterlimit:10;" d="&#10;&#9;&#9;&#9;&#9;M423.674,109.559h54.128c14.745,0,26.698,11.886,26.698,26.548v135.251"/>
			<path style="fill:none;stroke:#000000;stroke-width:15;stroke-linecap:round;stroke-linejoin:round;stroke-miterlimit:10;" d="&#10;&#9;&#9;&#9;&#9;M470.208,352.181c2.948-38.236,5.278-85.003,5.278-137.343h-51.812c0,115.23,11.952,207.444,15.968,235.173&#10;&#9;&#9;&#9;&#9;c0.713,4.92,4.926,8.568,9.897,8.568h0.124c4.954,0,9.16-3.621,9.89-8.521c1.759-11.806,4.996-35.437,8.095-68.076"/>
			<path style="fill:none;stroke:#000000;stroke-width:15;stroke-linecap:round;stroke-linejoin:round;stroke-miterlimit:10;" d="&#10;&#9;&#9;&#9;&#9;M449.614,33.5h-0.07c-6.842,0-12.389,5.547-12.389,12.389v33.624h24.849V45.889C462.004,39.047,456.457,33.5,449.614,33.5z"/>
		</g>
	</g>
</g>















</svg>
